<?xml version="1.0" encoding="UTF-8"?>
<svg width="8px" height="15px" viewBox="0 0 8 15" version="1.1" xmlns="http://www.w3.org/2000/svg" xmlns:xlink="http://www.w3.org/1999/xlink">
    <!-- Generator: Sketch 48.2 (47327) - http://www.bohemiancoding.com/sketch -->
    <title>facebook</title>
    <desc>Created with Sketch.</desc>
    <defs></defs>
    <g id="Desktop-HD" stroke="none" stroke-width="1" fill="none" fill-rule="evenodd" transform="translate(-722.000000, -505.000000)">
        <path d="M722,509.960417 L723.537297,509.960417 L723.537297,508.45375 C723.537297,507.78875 723.553818,506.76375 724.032106,506.129167 C724.536415,505.456667 725.227827,505 726.418179,505 C728.357766,505 729.173913,505.279167 729.173913,505.279167 L728.789382,507.57625 C728.789382,507.57625 728.149599,507.389167 727.551532,507.389167 C726.953465,507.389167 726.418179,507.605833 726.418179,508.208333 L726.418179,509.960417 L728.869923,509.960417 L728.698929,512.204583 L726.418179,512.204583 L726.418179,520 L723.537297,520 L723.537297,512.204583 L722,512.204583 L722,509.960417 Z" id="facebook" fill="#FFFFFF"></path>
    </g>
</svg>