<?xml version="1.0" encoding="UTF-8"?>
<svg width="16px" height="15px" viewBox="0 0 16 15" version="1.1" xmlns="http://www.w3.org/2000/svg" xmlns:xlink="http://www.w3.org/1999/xlink">
    <!-- Generator: Sketch 48.2 (47327) - http://www.bohemiancoding.com/sketch -->
    <title>instagram</title>
    <desc>Created with Sketch.</desc>
    <defs></defs>
    <g id="Desktop-HD" stroke="none" stroke-width="1" fill="none" fill-rule="evenodd" transform="translate(-751.000000, -505.000000)">
        <path d="M764.548118,517.10124 C764.548118,517.894313 763.903069,518.538111 763.109579,518.538111 L753.900845,518.538111 C753.107355,518.538111 752.462723,517.894313 752.462723,517.10124 L752.462723,510.959721 L754.703508,510.959721 C754.510452,511.436315 754.400789,511.95544 754.400789,512.5 C754.400789,514.762467 756.242119,516.601712 758.505421,516.601712 C760.768722,516.601712 762.609635,514.762467 762.609635,512.5 C762.609635,511.95544 762.499555,511.436315 762.307333,510.959721 L764.548118,510.959721 L764.548118,517.10124 Z M756.363457,510.959721 C756.84297,510.295074 757.623534,509.858926 758.505421,509.858926 C759.387307,509.858926 760.167037,510.295074 760.646967,510.959721 C760.96011,511.393784 761.14858,511.924167 761.14858,512.5 C761.14858,513.956052 759.962306,515.139406 758.505421,515.139406 C757.048118,515.139406 755.863096,513.956052 755.863096,512.5 C755.863096,511.924167 756.050731,511.393784 756.363457,510.959721 Z M763.94143,506.729166 L764.272919,506.727498 L764.272919,507.058153 L764.272919,509.26975 L761.737338,509.278924 L761.728165,506.736254 L763.94143,506.729166 Z M763.109579,505 L753.900845,505 C752.301774,505 751,506.300106 751,507.89876 L751,510.959721 L751,517.10124 C751,518.699894 752.301774,520 753.900845,520 L763.109579,520 C764.708651,520 766.010841,518.699894 766.010841,517.10124 L766.010841,510.959721 L766.010841,507.89876 C766.010841,506.300106 764.708651,505 763.109579,505 Z" id="instagram" fill="#FFFFFF"></path>
    </g>
</svg>