<?xml version="1.0" encoding="UTF-8"?>
<svg width="14px" height="13px" viewBox="0 0 14 13" version="1.1" xmlns="http://www.w3.org/2000/svg" xmlns:xlink="http://www.w3.org/1999/xlink">
    <!-- Generator: Sketch 48.2 (47327) - http://www.bohemiancoding.com/sketch -->
    <title>linked in</title>
    <desc>Created with Sketch.</desc>
    <defs></defs>
    <g id="Desktop-HD" stroke="none" stroke-width="1" fill="none" fill-rule="evenodd" transform="translate(-815.000000, -505.000000)">
        <path d="M829,517.866 L825.904833,517.866 L825.904833,513.342444 C825.904833,512.158667 825.421833,511.351333 824.357444,511.351333 C823.5435,511.351333 823.091222,511.895778 822.880056,512.422722 C822.799944,512.610944 822.813167,512.872667 822.813167,513.136333 L822.813167,517.866 L819.747556,517.866 C819.747556,517.866 819.788389,509.854111 819.747556,509.125722 L822.813167,509.125722 L822.813167,510.496556 C822.994389,509.897667 823.973611,509.042111 825.536556,509.042111 C827.475944,509.042111 829,510.298611 829,513.006056 L829,517.866 Z M816.647333,508.032556 L816.6275,508.032556 C815.640111,508.032556 815,507.363278 815,506.516667 C815,505.655278 815.658778,505 816.667167,505 C817.672833,505 818.291944,505.653722 818.312167,506.515111 C818.312167,507.361722 817.672833,508.032556 816.647333,508.032556 Z M815.351944,517.866 L818.082333,517.866 L818.082333,509.125722 L815.351944,509.125722 L815.351944,517.866 Z" id="linked-in" fill="#FFFFFF"></path>
    </g>
</svg>