<?xml version="1.0" encoding="UTF-8"?>
<svg width="18px" height="14px" viewBox="0 0 18 14" version="1.1" xmlns="http://www.w3.org/2000/svg" xmlns:xlink="http://www.w3.org/1999/xlink">
    <!-- Generator: Sketch 48.2 (47327) - http://www.bohemiancoding.com/sketch -->
    <title>twitter</title>
    <desc>Created with Sketch.</desc>
    <defs></defs>
    <g id="Desktop-HD" stroke="none" stroke-width="1" fill="none" fill-rule="evenodd" transform="translate(-682.000000, -506.000000)">
        <path d="M699.888889,507.657643 C699.230478,507.938543 698.522873,508.128042 697.780981,508.2137 C698.539769,507.776319 699.121654,507.084359 699.39446,506.259366 C698.684867,506.664206 697.900738,506.958026 697.062941,507.115463 C696.395586,506.429245 695.440519,506 694.384577,506 C692.35866,506 690.715367,507.582992 690.715367,509.533976 C690.715367,509.811526 690.746673,510.080462 690.809781,510.339349 C687.760719,510.191004 685.056515,508.785548 683.244769,506.646021 C682.928731,507.169538 682.748849,507.776319 682.748849,508.424255 C682.748849,509.649303 683.396824,510.731269 684.380713,511.365805 C683.780441,511.3481 683.213463,511.187791 682.717543,510.924597 L682.717543,510.967665 C682.717543,512.681296 683.983182,514.109243 685.66275,514.43321 C685.35516,514.515997 685.03167,514.557629 684.695756,514.557629 C684.459225,514.557629 684.229154,514.536574 684.005543,514.494941 C684.472642,515.898961 685.826731,516.92111 687.43375,516.948387 C686.177056,517.896842 684.593889,518.461512 682.875562,518.461512 C682.579401,518.461512 682.286719,518.445721 682,518.41318 C683.62441,519.414753 685.553429,520 687.625062,520 C694.37762,520 698.067701,514.615532 698.067701,509.94408 C698.067701,509.790949 698.064719,509.637818 698.057265,509.48708 C698.775306,508.988447 699.398932,508.365395 699.888889,507.657643" id="twitter" fill="#FFFFFF"></path>
    </g>
</svg>